<svg xmlns="http://www.w3.org/2000/svg" style="stroke-width: 0px;" viewBox="19 66.2806 171.803 68.0194" preserveAspectRatio="xMidYMid meet">
    <g>
        <path d="M 180 84.9 c 0.9 -0.9 2.3 -6.2 1.1 -7.8 c -0.2 -0.3 -1.1 -1.2 -2.7 -0.1 c -13 8.6 -51.5 16.9 -58.3 18.3 c -0.5 -5.6 -3.7 -29.8 -17.3 -29 H 53 c -18.8 0.1 -34 15.2 -34 33.7 c 0 18.6 15.3 33.7 34.1 33.7 c 0.7 0.1 3 0.1 10.7 0.3 c 5.9 0.1 14.8 0.3 24 0.3 h 4.5 c 31.5 0 34.2 -1.7 35.1 -2.3 c 14.8 -9.2 51 -45.6 52.6 -47.1 Z m -1.4 -1.3 c -0.9 0.9 -37.7 37.8 -52.3 46.8 c -5.1 3.1 -64.3 1.7 -72.5 1.4 H 53 c -17.7 0 -32.2 -14.2 -32.2 -31.7 c 0 -17.4 14.4 -31.7 32.1 -31.8 h 49.9 c 13.2 -0.8 15.4 28 15.4 28.3 l 0.1 1.1 l 1.1 -0.2 c 1.9 -0.4 45.6 -9.2 60.1 -18.8 c 0.1 0 0.1 -0.1 0.2 -0.1 c 0.1 1 -0.6 4.2 -1.1 5 Z" />
        <path d="M 29 100 c 0 11.1 8.1 20.8 19.2 23 l 1.2 0.2 V 76.7 l -1.2 0.2 C 37.1 79.1 29 88.8 29 100 Z m 18.5 20.8 c -9.6 -2.4 -16.5 -11 -16.5 -20.9 c 0 -9.8 6.9 -18.4 16.5 -20.9 v 41.8 Z" />
        <path d="M 186.2 104 c -0.6 -0.4 -1.2 -0.7 -1.5 -1.1 c -1 -1.1 -1.2 -3.2 -1.4 -5.2 c -0.1 -1.3 -0.2 -2.6 -0.6 -3.7 c -0.3 -0.8 -1 -1.3 -1.8 -1.3 s -1.6 0.5 -1.8 1.3 c -0.9 2.8 -2.5 5.4 -4.1 8 c -2 3.2 -4 6.3 -4 9.4 c 0 5.9 4.5 10.7 9.9 10.7 c 6.3 0 9.9 -3.9 9.9 -10.7 c 0.1 -4.4 -2.7 -6.2 -4.6 -7.4 Z m -5.2 16.2 c -4.4 0 -8 -3.9 -8 -8.7 c 0 -2.6 1.8 -5.4 3.7 -8.4 c 1.7 -2.6 3.4 -5.3 4.3 -8.3 c 0.3 0.9 0.4 2 0.4 3.2 c 0.2 2.2 0.4 4.7 1.9 6.4 c 0.5 0.5 1.1 0.9 1.8 1.4 c 1.8 1.1 3.8 2.4 3.8 5.8 c 0.1 7.1 -4.3 8.6 -7.9 8.6 Z" />
    </g>
</svg>