<svg xmlns="http://www.w3.org/2000/svg" style="stroke-width: 0px;" viewBox="24.5197 45.6 150.992 109.1" preserveAspectRatio="xMidYMid meet">
    <g>
        <path d="M 118.7 63.3 h 30.5 c 0.7 0 1.4 -0.3 1.9 -0.9 c 2 -2.6 0.1 -11.1 -0.6 -13.9 c -0.1 -1.6 -1.4 -2.9 -3.1 -2.9 h -26.9 c -1.6 0 -3 1.3 -3.1 2.9 c -0.7 2.8 -2.6 11.4 -0.6 13.9 c 0.5 0.5 1.1 0.9 1.9 0.9 Z m 1.3 -14.4 v -0.4 c 0 -0.2 0.2 -0.5 0.5 -0.5 h 26.9 c 0.2 0 0.5 0.2 0.5 0.5 v 0.4 c 1.3 5.3 1.9 10.7 1.2 11.8 h -30.2 c -0.8 -1.1 -0.3 -6.5 1.1 -11.8 Z" />
        <path d="M 50.7 63.3 h 30.5 c 0.7 0 1.4 -0.3 1.9 -0.9 c 2 -2.6 0.1 -11.1 -0.6 -13.9 c -0.1 -1.6 -1.4 -2.9 -3.1 -2.9 h -27 c -1.6 0 -3 1.3 -3.1 2.9 c -0.7 2.8 -2.6 11.4 -0.6 13.9 c 0.6 0.5 1.2 0.9 2 0.9 Z m 1.2 -14.4 v -0.4 c 0 -0.2 0.2 -0.5 0.5 -0.5 h 26.9 c 0.2 0 0.5 0.2 0.5 0.5 v 0.4 c 1.3 5.3 1.9 10.7 1.2 11.8 H 50.8 c -0.7 -1.1 -0.2 -6.5 1.1 -11.8 Z" />
        <path d="M 174.5 69.3 c -0.5 -0.7 -1.5 -1.5 -3.3 -1.3 c -13.2 1 -86.8 0.2 -122.2 -0.2 c -10.4 -0.1 -17.9 -0.2 -20.3 -0.2 c -1.3 0 -2.3 0.5 -3 1.5 c -2.3 3 -0.6 9.9 -0.2 11.3 c 0.1 1.4 1.3 2.6 2.8 2.6 h 1 c -0.3 4.3 -1 17.6 -1.2 31.5 c -0.5 34.2 3 37.9 4.1 39.1 c 0.8 0.9 1.7 1.1 2.3 1.1 h 130.8 c 0.6 0 1.5 -0.2 2.4 -1.1 c 6.8 -7.3 3.6 -59.6 2.8 -70.5 h 0.9 c 1.5 0 2.7 -1.1 2.8 -2.5 c 0.5 -2 2.5 -8.4 0.3 -11.3 Z m -2.9 10.3 l -0.1 0.2 v 0.2 c 0 0.1 -0.1 0.2 -0.2 0.2 h -3.7 l 0.1 1.4 c 1.8 25.3 2.8 64.7 -2 69.9 c -0.3 0.3 -0.4 0.3 -0.5 0.3 H 34.4 c -0.1 0 -0.3 -0.2 -0.4 -0.2 c -4.7 -5 -3.8 -44.6 -2.1 -70 l 0.1 -1.4 h -3.7 c -0.1 0 -0.2 -0.1 -0.2 -0.2 v -0.4 c -0.8 -2.9 -1.4 -7.6 -0.3 -9.1 c 0.2 -0.2 0.4 -0.4 1 -0.4 c 2.4 0 9.9 0.1 20.3 0.2 c 38.1 0.4 109.1 1.2 122.4 0.2 c 0.7 -0.1 0.9 0.2 1 0.3 c 1 1.5 0.1 6 -0.9 8.8 Z" />
        <path d="M 47.4 116.2 h 32.3 v -12.1 H 47.4 v 12.1 Z m 2.6 -9.5 h 27.1 v 6.9 H 50 v -6.9 Z" />
        <path d="M 140 92.2 h -12.1 v 11.9 h -12 v 12.1 h 12 v 11.9 H 140 v -11.9 h 12 v -12.1 h -12 V 92.2 Z m 9.3 14.5 v 6.9 h -12 v 11.9 h -6.9 v -11.9 h -12 v -6.9 h 12 V 94.8 h 6.9 v 11.9 h 12 Z" />
    </g>
</svg>