<svg xmlns="http://www.w3.org/2000/svg" style="stroke-width: 0px;" viewBox="28.9 25 142.1 150" preserveAspectRatio="xMidYMid meet">
    <g>
        <path d="M 129.6 95.2 l -9.3 11.7 l 22.1 17.7 L 171 79.9 l -11.8 -7.8 l -19.6 30.8 l -10 -7.7 Z M 160 75.8 l 7.4 4.9 l -25.6 40.1 l -17.8 -14.3 l 6.1 -7.7 l 10.2 7.9 L 160 75.8 Z" />
        <path d="M 157 128.5 h -38.7 V 89.7 h 26 l 0.1 -1.2 c 0.4 -7.9 2.3 -47.6 -2.7 -52.9 c -0.7 -0.7 -1.4 -0.9 -1.9 -0.9 H 99.6 C 98.8 29.3 94 25 88.2 25 c -5.8 0 -10.6 4.3 -11.3 9.7 H 34.6 c -1.7 0 -2.5 1.9 -3.3 7.4 c -0.5 3.9 -1 9.4 -1.4 16.6 c -0.6 12.6 -1 30.2 -1 49.5 c 0 16.5 0.3 33 0.7 45.3 c 0.2 6.3 0.5 11.3 0.8 14.8 c 0.5 5.2 0.8 6.7 2.4 6.7 h 106.8 c 0.6 0 1.5 -0.2 2.3 -1.1 c 4.2 -4.5 2.9 -26.4 2.5 -32.6 h 25.2 v -35.4 H 157 v 22.6 Z m 2.6 -20 h 7.5 v 30.2 h -25.4 l 0.1 1.4 c 0.9 10.7 1.2 28.9 -1.7 32.1 c -0.2 0.2 -0.3 0.2 -0.4 0.2 h -106 c -1.1 -4.5 -2.2 -32 -2.1 -67.4 c 0.1 -42.9 1.8 -64.6 3.5 -67.6 h 44.4 v -1.3 c 0 -4.6 4 -8.4 8.8 -8.4 c 4.8 0 8.7 3.8 8.8 8.4 v 1.3 h 42.7 c 0.4 0.3 2.7 2.9 2.7 26.1 c 0 10.2 -0.4 20.2 -0.6 23.7 h -26.2 v 44 h 43.9 v -22.7 Z" />
        <path d="M 54.6 134.7 h 53.6 v -23.3 H 54.6 v -4 h 53.6 V 83.8 H 54.6 v -4 h 74.5 V 54.1 c 0 -2.3 0 -3.5 -0.8 -4.4 c -0.9 -1 -2.3 -1 -4.3 -1 h -17.3 v 11.6 h -45 V 48.7 H 44.4 c -2 0 -3.4 0 -4.3 1 c -0.8 0.9 -0.8 2.1 -0.8 4.4 V 155 c 0 2.2 0 3.5 0.8 4.4 c 0.9 1 2.3 1 4.3 1 H 124 c 2 0 3.4 0 4.3 -1 c 0.8 -0.9 0.8 -2.2 0.8 -4.4 v -16.2 H 54.6 v -4.1 Z m 71.9 6.6 v 13.6 c 0 1.2 0 2.4 -0.1 2.7 c -0.3 0.2 -1.7 0.2 -2.4 0.2 H 44.4 c -0.7 0 -2 0 -2.4 -0.2 c -0.1 -0.3 -0.1 -1.5 -0.1 -2.6 V 54.1 c 0 -1.1 0 -2.3 0.1 -2.6 c 0.3 -0.2 1.6 -0.2 2.4 -0.2 h 14.7 v 11.6 h 50.2 V 51.3 H 124 c 0.7 0 2 0 2.4 0.2 c 0.1 0.3 0.1 1.5 0.1 2.7 v 23.1 H 52 v 9.2 h 53.6 v 18.4 H 52 v 9.2 h 53.6 v 18.1 H 52 v 9.2 h 74.5 Z" />
    </g>
</svg>