<svg xmlns="http://www.w3.org/2000/svg" style="stroke-width: 7.39468px;" viewBox="35.4929 17.5067 122.012 158.986" preserveAspectRatio="xMidYMid meet">
    <g>
        <path d="M 79.534 71.002 c 0 -2.485 2.963 -11.852 16.822 -11.852 c 15.484 0 16.631 9.462 16.631 11.47 c 0 5.83 4.683 10.514 10.514 10.514 c 5.83 0 10.514 -4.683 10.514 -10.514 c 0 -9.08 -3.632 -17.3 -10.323 -23.322 c -3.728 -3.345 -8.029 -5.83 -13.19 -7.36 c -0.765 -0.287 -2.294 -0.86 -2.294 -3.154 v -4.779 c 0.096 -5.926 -4.875 -10.801 -10.896 -10.801 c -6.022 0 -10.992 4.875 -10.992 10.896 v 4.779 c 0 2.103 -1.625 2.676 -2.39 2.867 c -16.058 4.683 -25.424 18.16 -25.424 31.255 c 0 43.394 57.54 24.182 57.54 51.327 c 0 3.345 -2.103 12.617 -19.212 12.617 c -17.205 0 -19.976 -12.425 -19.976 -17.3 c 0 -5.83 -4.683 -10.514 -10.514 -10.514 s -10.514 4.683 -10.514 10.514 c 0 10.514 4.014 20.168 11.183 27.145 c 4.588 4.397 10.227 7.551 16.535 9.367 c 0.86 0.287 2.867 2.294 2.867 3.823 v 3.919 c 0 6.022 4.97 10.896 10.992 10.896 c 6.022 0 10.896 -4.779 10.896 -10.801 v -4.683 c 0 -1.529 1.434 -2.676 2.294 -2.867 c 5.639 -1.434 10.514 -3.919 14.719 -7.264 c 7.646 -6.213 11.852 -15.006 11.852 -24.755 c 0.002 -45.975 -57.634 -30.969 -57.634 -51.423 Z" />
    </g>
</svg>