<svg xmlns="http://www.w3.org/2000/svg" style="stroke-width: 0px;" viewBox="25 31.096 150.111 138.004" preserveAspectRatio="xMidYMid meet">
    <g>
        <path d="M 88.7 107.3 c -2 -1 -4.5 0.5 -8.2 4.9 c -1.7 2 -3.1 4 -3.9 5.1 c -9.2 -2.9 -19.1 -0.4 -26.2 6.6 c -7.5 7.5 -9.8 18.8 -5.7 28.7 l 0.7 1.8 l 14.8 -14.8 c 1.9 -1.9 5.1 -1.9 7.1 0 l 5.1 5.1 c 0.9 0.9 1.5 2.2 1.5 3.5 c 0 1.3 -0.5 2.6 -1.5 3.5 l -14.8 14.8 l 1.9 0.7 c 3.2 1.2 6.5 1.9 9.8 1.9 c 6.9 0 13.6 -2.7 18.6 -7.7 c 6.8 -6.8 9.3 -16.6 6.7 -25.8 c 4.6 -3.2 9.6 -7.2 9.6 -9.3 c 0.1 -3.1 -12.6 -17.5 -15.5 -19 Z m 3.7 26.6 l -0.8 0.5 l 0.3 0.9 c 2.7 8.6 0.5 17.8 -5.8 24.1 c -6.2 6.2 -15.3 8.4 -23.7 5.9 l 11.9 -11.9 c 1.4 -1.4 2.2 -3.3 2.2 -5.4 s -0.8 -3.9 -2.2 -5.4 l -5.1 -5.1 c -3 -3 -7.8 -3 -10.7 0 l -12 12 c -2.7 -8.5 -0.5 -17.7 5.8 -24 c 6.5 -6.5 15.9 -8.7 24.4 -5.7 l 1 0.3 l 0.6 -0.8 c 3.9 -6 8.2 -10.2 9.3 -9.9 c 2.5 1.3 13.3 14 14.1 16.6 c -0.6 1.4 -5.2 5.1 -9.3 7.9 Z" />
        <path d="M 50.7 98.5 c 1.5 0 4.4 -1 11.4 -6.6 c 15.4 -12.2 47.7 -44.7 48 -49.2 c 0.2 -2.2 -0.8 -4.6 -2.8 -6.8 c -2.4 -2.7 -5.8 -4.7 -8.5 -4.8 c -2.5 -0.1 -6.3 1.7 -10.7 3.9 c -3.8 1.9 -7.8 3.8 -10.5 4.2 c -5.1 0.7 -10.8 0.9 -16.5 0.5 c -2.3 -0.2 -5.2 -0.1 -7.4 2.1 c -4.9 3.8 -28.7 23.3 -28.7 30 c 0 3.1 4.6 9.6 9.2 14.8 c 2.9 3.3 10.2 10.9 16.1 11.9 c 0.1 -0.1 0.2 0 0.4 0 Z M 36.1 84.8 c -5.3 -5.9 -8.5 -11.4 -8.5 -13 c 0 -4.2 17.1 -19.5 27.8 -28.1 l 0.1 -0.1 c 1 -1 2.3 -1.5 4.3 -1.5 H 61 c 5.9 0.4 11.8 0.3 17.1 -0.5 c 3.1 -0.4 7.3 -2.5 11.3 -4.4 c 3.8 -1.8 7.6 -3.7 9.4 -3.6 c 2 0.1 4.8 1.8 6.7 4 c 1.5 1.7 2.2 3.4 2.1 4.8 c -0.6 2.2 -12.1 15 -26.6 29 c -17.8 17.3 -28.2 24.8 -30.4 24.4 c -3.4 -0.5 -8.9 -4.7 -14.5 -11 Z" />
        <path d="M 167.4 140.1 c -2.8 -2.7 -8.6 -8.5 -15.9 -15.8 c -10.8 -10.7 -24.1 -24.1 -35.4 -35 c -20.2 -19.5 -21.8 -19.5 -22.8 -19.5 c -4.6 0 -12.2 6 -15.7 11.1 c -1.6 2.5 -2.2 4.5 -1.5 6.1 c 4.1 9.8 65.4 73.5 68 76.2 c 3.2 3.1 7.3 4.9 11.7 4.9 c 4.4 0 8.5 -1.7 11.5 -4.8 c 3.1 -3.1 4.8 -7.2 4.8 -11.5 c 0.2 -4.4 -1.6 -8.6 -4.7 -11.7 Z m -1.7 21.4 c -2.6 2.6 -6 4 -9.7 4 c -3.7 0 -7.2 -1.5 -9.9 -4.1 c -22 -22.8 -64.4 -67.9 -67.5 -75.4 c -0.2 -0.5 0 -1.7 1.3 -3.6 c 3.2 -4.8 10 -9.9 13.4 -10 c 4.1 1.5 38.1 35.4 56.3 53.7 c 7.3 7.3 13.1 13.1 16 15.8 c 2.6 2.6 4.1 6.2 4.1 9.9 s -1.5 7.1 -4 9.7 Z" />
        <path d="M 155.8 145.6 c -3.5 0 -6.3 2.8 -6.3 6.3 s 2.8 6.3 6.3 6.3 s 6.3 -2.8 6.3 -6.3 c 0.1 -3.5 -2.8 -6.3 -6.3 -6.3 Z m 0 10 c -2.1 0 -3.7 -1.7 -3.7 -3.7 c 0 -2.1 1.7 -3.7 3.7 -3.7 c 2.1 0 3.7 1.7 3.7 3.7 c 0.1 2.1 -1.6 3.7 -3.7 3.7 Z" />
        <path d="M 129 98.3 c 0.4 0.2 0.8 0.3 1.3 0.3 c 1.8 0 4 -1.7 7 -5.2 c 1.7 -2 3.1 -4 3.9 -5.1 c 9.2 2.9 19.1 0.4 26.2 -6.6 c 7.5 -7.5 9.8 -18.8 5.7 -28.7 l -0.7 -1.8 L 157.6 66 c -1.9 1.9 -5.1 1.9 -7.1 0 l -5.1 -5.1 c -0.9 -0.9 -1.5 -2.2 -1.5 -3.5 s 0.5 -2.6 1.5 -3.5 l 14.8 -14.8 l -1.9 -0.7 c -9.8 -3.9 -21 -1.6 -28.4 5.8 c -6.8 6.8 -9.3 16.6 -6.7 25.8 c -1.1 0.8 -3.2 2.4 -5.2 4.1 c -5.9 4.8 -6.4 6.2 -6.4 7.1 c -0.1 3.4 14.8 15.7 17.4 17.1 Z m -3.6 -26.6 l 0.8 -0.6 l -0.3 -0.9 c -2.7 -8.6 -0.5 -17.8 5.8 -24.1 c 6.2 -6.2 15.3 -8.4 23.7 -5.9 l -11.9 11.9 c -1.4 1.4 -2.2 3.3 -2.2 5.4 s 0.8 3.9 2.2 5.4 l 5.1 5.1 c 3 3 7.8 3 10.7 0 l 12 -12 c 2.7 8.5 0.5 17.7 -5.8 24 c -6.5 6.5 -15.9 8.7 -24.4 5.7 l -1 -0.3 l -0.6 0.8 c -3.9 6 -8.2 10.2 -9.3 9.9 c -3.4 -1.8 -15 -12.3 -16.1 -14.7 c 0.8 -1.5 6.3 -6.1 11.3 -9.7 Z" />
    </g>
</svg>